<?xml version="1.0" encoding="UTF-8" standalone="no"?>
<svg
   xmlns:dc="http://purl.org/dc/elements/1.1/"
   xmlns:cc="http://creativecommons.org/ns#"
   xmlns:rdf="http://www.w3.org/1999/02/22-rdf-syntax-ns#"
   xmlns:svg="http://www.w3.org/2000/svg"
   xmlns="http://www.w3.org/2000/svg"
   xmlns:sodipodi="http://sodipodi.sourceforge.net/DTD/sodipodi-0.dtd"
   xmlns:inkscape="http://www.inkscape.org/namespaces/inkscape"
   inkscape:version="1.0 (4035a4fb49, 2020-05-01)"
   sodipodi:docname="logo.svg"
   id="svg10"
   version="1.1"
   fill="none"
   viewBox="0 0 104.7222 38.424198"
   height="38.424198"
   width="104.7222">
  <metadata
     id="metadata16">
    <rdf:RDF>
      <cc:Work
         rdf:about="">
        <dc:format>image/svg+xml</dc:format>
        <dc:type
           rdf:resource="http://purl.org/dc/dcmitype/StillImage" />
        <dc:title></dc:title>
      </cc:Work>
    </rdf:RDF>
  </metadata>
  <defs
     id="defs14" />
  <sodipodi:namedview
     inkscape:current-layer="svg10"
     inkscape:window-maximized="1"
     inkscape:window-y="50"
     inkscape:window-x="-8"
     inkscape:cy="19.3242"
     inkscape:cx="52.3612"
     inkscape:zoom="5.779661"
     fit-margin-left="0.1"
     fit-margin-right="0.1"
     fit-margin-bottom="0.1"
     fit-margin-top="0.1"
     showgrid="false"
     id="namedview12"
     inkscape:window-height="1137"
     inkscape:window-width="1920"
     inkscape:pageshadow="2"
     inkscape:pageopacity="0"
     guidetolerance="10"
     gridtolerance="10"
     objecttolerance="10"
     borderopacity="1"
     bordercolor="#666666"
     pagecolor="#ffffff" />
  <path
     id="path2"
     fill="#ffd200"
     d="M 62.7927,8.7526 C 60.0495,6.0094 56.7928,3.8333 53.2087,2.3487 49.6245,0.8641 45.7831,0.1 41.9036,0.1 c -3.8795,0 -7.7209,0.7641 -11.3051,2.2487 -3.5841,1.4846 -6.8408,3.6607 -9.584,6.4039 l 20.8891,20.889 z" />
  <path
     id="path4"
     fill="#06e07f"
     d="m 41.9298,29.6717 c 2.7432,2.7432 5.9998,4.9192 9.584,6.4038 3.5841,1.4846 7.4256,2.2487 11.3051,2.2487 3.8793,0 7.7213,-0.7641 11.3053,-2.2487 3.584,-1.4846 6.841,-3.6606 9.584,-6.4038 L 62.8189,8.7826 Z" />
  <path
     id="path6"
     fill="#e3073c"
     d="m 41.8782,29.6671 c -2.7432,2.7432 -5.9999,4.9192 -9.584,6.4038 -3.5842,1.4846 -7.4256,2.2487 -11.3051,2.2487 -3.8795,0 -7.7209,-0.7641 -11.3051,-2.2487 C 6.0999,34.5863 2.8432,32.4103 0.1,29.6671 L 20.9891,8.778 Z" />
  <path
     id="path8"
     fill="#1f84ef"
     d="m 62.8443,8.7572 c 2.7429,-2.7432 5.9999,-4.9192 9.5839,-6.4038 3.584,-1.4846 7.426,-2.2487 11.305,-2.2487 3.88,0 7.721,0.7641 11.305,2.2487 3.584,1.4846 6.841,3.6606 9.584,6.4038 l -20.889,20.8891 z" />
</svg>
